<svg xmlns="http://www.w3.org/2000/svg" viewBox="0 0 512 512">
  <rect width="512" height="512" fill="#16a34a"/>
  <path d="M256 64C150 64 64 150 64 256s86 192 192 192 192-86 192-192S362 64 256 64zm0 320c-70.7 0-128-57.3-128-128s57.3-128 128-128 128 57.3 128 128-57.3 128-128 128z" fill="#ffffff"/>
  <path d="M256 160c-17.7 0-32 14.3-32 32v64H160c-17.7 0-32 14.3-32 32s14.3 32 32 32h64v64c0 17.7 14.3 32 32 32s32-14.3 32-32v-64h64c17.7 0 32-14.3 32-32s-14.3-32-32-32h-64v-64c0-17.7-14.3-32-32-32z" fill="#ffffff"/>
</svg>
